<svg width="197" height="55" viewBox="0 0 197 55" fill="none" xmlns="http://www.w3.org/2000/svg">
<g clip-path="url(#clip0)">
<rect width="197" height="55" fill="white"/>
<path d="M28.3289 5.86897L30.6184 12.9189C31.3528 15.1802 29.6671 17.5 27.2895 17.5H22.7105C20.3329 17.5 18.6472 15.1802 19.3816 12.9189L21.6711 5.86898C22.7186 2.64374 27.2814 2.64374 28.3289 5.86897Z" stroke="black"/>
<path d="M38.9102 10.9909L37.5095 18.2697C37.0601 20.6045 34.4636 21.8214 32.3818 20.6729L28.3724 18.461C26.2906 17.3125 25.9353 14.4671 27.6706 12.8418L33.0808 7.7749C35.5558 5.45687 39.5511 7.66096 38.9102 10.9909Z" stroke="black"/>
<path d="M17.528 7.13189L22.9377 12.1993C24.673 13.8247 24.3173 16.6701 22.2354 17.8184L18.2259 20.03C16.144 21.1783 13.5476 19.9611 13.0984 17.6264L11.6983 10.3474C11.0577 7.01741 15.0531 4.81365 17.528 7.13189Z" stroke="black"/>
<path d="M44.9121 20.5153L40.6757 26.5978C39.3169 28.5488 36.4499 28.6063 35.0141 26.7112L32.2486 23.0615C30.8127 21.1665 31.6437 18.422 33.8895 17.6417L40.8913 15.2089C44.0945 14.0959 46.8502 17.7327 44.9121 20.5153Z" stroke="black"/>
<path d="M7.90569 13.6879L14.9076 16.1205C17.1535 16.9008 17.9845 19.6453 16.5486 21.5403L13.7833 25.1901C12.3475 27.0852 9.48053 27.0279 8.12163 25.0769L3.88508 18.9945C1.94693 16.2119 4.70245 12.5751 7.90569 13.6879Z" stroke="black"/>
<path d="M37.2939 15.5919L40.3086 19.9998C47.3445 30.2871 39.9779 44.25 27.5147 44.25H21.4853C9.02209 44.25 1.65554 30.2871 8.6914 19.9998L11.7061 15.5919C17.8613 6.5922 31.1387 6.5922 37.2939 15.5919Z" fill="white" stroke="black"/>
<path d="M13 20C24.5294 20 17.9412 24.5 19.5882 20" stroke="black"/>
<path d="M37 20C33.3536 20 31.5195 20.4501 30.6639 20.9233M30.6639 20.9233C29.0332 21.825 30.9569 22.8105 30.6639 20.9233ZM30.6639 20.9233C30.6245 20.6697 30.5451 20.3644 30.4118 20" stroke="black"/>
<path d="M21.1453 34.1434C21.9108 34.599 22.6933 35.1698 23.5645 35.3876C24.1699 35.5389 24.7812 35.4214 25.3901 35.3876C25.7092 35.3698 26.6028 35.0531 26.8172 34.8387C27.1075 34.5483 27.5199 34.3406 27.6588 33.9239" stroke="black" stroke-linecap="round" stroke-linejoin="round"/>
<path d="M21.2185 34.6557C21.2185 35.0094 21.2185 35.3632 21.2185 35.7169C21.2185 35.8522 21.3552 36.4431 21.4543 36.5423C21.4794 36.5674 22.1824 35.6554 22.2431 35.5339" stroke="black" stroke-linecap="round" stroke-linejoin="round"/>
<ellipse cx="16" cy="30" rx="2" ry="1" fill="#D18181"/>
<ellipse cx="34" cy="30" rx="2" ry="1" fill="#D18181"/>
<path d="M26.0488 35.3144C26.2028 35.4404 27.1667 36.7784 27.423 36.2658C27.6496 35.8128 27.6588 35.2319 27.6588 34.7289" stroke="black" stroke-linecap="round" stroke-linejoin="round"/>
<circle cx="17" cy="27" r="2.5" fill="white" stroke="black"/>
<path d="M16.1889 28.6334C15.7893 28.2213 15.883 27.8406 16.338 27.5511C16.8282 27.2391 17.422 27.3067 17.9063 27.5835C18.2219 27.7638 18.305 28.382 17.835 28.4001C17.6134 28.4086 17.2607 28.4418 17.1221 28.238C16.9832 28.0337 17.1494 27.8751 17.3554 27.8751C17.6152 27.8751 17.6251 27.9999 17.349 28.0501C17.1251 28.0908 16.6523 28.1142 16.8305 28.426C16.9155 28.5748 17.3573 28.4213 17.2939 28.1992C17.2724 28.1239 17.1153 28.0849 17.0768 28.1668C16.9963 28.3377 17.5886 28.5191 17.6762 28.5426C18.5617 28.7802 17.7499 28.2727 17.4851 28.4714C17.3274 28.5896 17.2177 28.5751 17.0055 28.5751C16.6124 28.5751 17.0353 28.7014 16.9925 28.6463C16.8645 28.4818 16.4909 28.4572 17.0055 28.4001" stroke="black" stroke-linecap="round" stroke-linejoin="round"/>
<circle cx="33" cy="27" r="2.5" fill="white" stroke="black"/>
<path d="M32.1889 28.6334C31.7893 28.2213 31.883 27.8406 32.338 27.5511C32.8282 27.2391 33.422 27.3067 33.9063 27.5835C34.2219 27.7638 34.305 28.382 33.835 28.4001C33.6134 28.4086 33.2607 28.4418 33.1221 28.238C32.9832 28.0337 33.1494 27.8751 33.3554 27.8751C33.6152 27.8751 33.6251 27.9999 33.349 28.0501C33.1251 28.0908 32.6523 28.1142 32.8305 28.426C32.9155 28.5748 33.3573 28.4213 33.2939 28.1992C33.2724 28.1239 33.1153 28.0849 33.0768 28.1668C32.9963 28.3377 33.5886 28.5191 33.6762 28.5426C34.5617 28.7802 33.7499 28.2727 33.4851 28.4714C33.3274 28.5896 33.2177 28.5751 33.0055 28.5751C32.6124 28.5751 33.0353 28.7014 32.9925 28.6463C32.8645 28.4818 32.4909 28.4572 33.0055 28.4001" stroke="black" stroke-linecap="round" stroke-linejoin="round"/>
<path d="M65.0808 9.88635C63.5657 11.4312 62.2929 13.0515 61.1398 14.8699C58.6251 18.8353 55.3514 22.3494 52.4059 25.9939C49.8051 29.2117 48.0187 32.4972 46.3163 36.2025C45.7143 37.5126 46.6175 38.9485 48.0707 38.9485C53.4381 38.9485 58.7962 39.1773 64.1655 39.1773" stroke="#E4DE45" stroke-width="3" stroke-linecap="round" stroke-linejoin="round"/>
<path d="M70.3441 34.143C73.0315 34.6548 77.1232 34.5964 78.0737 31.2698C78.8528 28.5428 74.7006 27.964 73.9546 30.2019C73.3805 31.9242 73.319 33.4821 73.319 35.2871C73.319 37.1535 74.8634 37.6888 76.5227 38.262C77.3273 38.54 78.6027 38.9099 79.4467 38.6688C79.8675 38.5486 80.965 37.9932 81.0994 38.262" stroke="black" stroke-width="3" stroke-linecap="round" stroke-linejoin="round"/>
<path d="M108 34.3198C110.687 34.8317 114.779 34.7732 115.73 31.4466C116.509 28.7196 112.356 28.1408 111.611 30.3787C111.036 32.101 110.975 33.6589 110.975 35.464C110.975 37.3303 112.519 37.8656 114.179 38.4388C114.983 38.7168 116.259 39.0868 117.103 38.8456C117.523 38.7254 118.621 38.17 118.755 38.4388" stroke="black" stroke-width="3" stroke-linecap="round" stroke-linejoin="round"/>
<path d="M85.9049 27.9644C88.7991 28.2433 91.6967 28.1932 94.6007 28.1932" stroke="black" stroke-width="3" stroke-linecap="round" stroke-linejoin="round"/>
<path d="M91.8547 24.0742C90.4031 26.6145 89.699 29.6035 88.6001 32.3123C87.7174 34.4884 87.278 36.4208 87.278 38.7197C87.278 41.9682 91.0334 37.8043 92.3123 37.8043" stroke="black" stroke-width="3" stroke-linecap="round" stroke-linejoin="round"/>
<path d="M98.9486 28.1932C101.399 28.1932 103.825 27.9644 106.271 27.9644" stroke="black" stroke-width="3" stroke-linecap="round" stroke-linejoin="round"/>
<path d="M103.525 23.6165C102.653 25.6398 101.875 27.9225 101.682 30.1383C101.596 31.1246 101.466 32.0478 101.466 33.0496C101.466 34.1862 101.008 35.2199 101.008 36.3296C101.008 36.9612 101.047 37.3703 101.351 37.9188C101.71 38.5636 101.431 38.3379 102.152 38.262C103.089 38.1634 104.509 36.7058 105.127 37.1178" stroke="black" stroke-width="3" stroke-linecap="round" stroke-linejoin="round"/>
<path d="M122 31.2936C124.894 30.191 124.157 32.4174 124.06 34.2685C124.031 34.8042 123.105 37.2707 123.144 36.5568C123.328 33.2505 130.216 30.106 131.84 33.3531" stroke="black" stroke-width="3" stroke-linecap="round" stroke-linejoin="round"/>
<path d="M140.975 10.0595C141.763 13.8265 144.151 17.0418 146.874 19.4926C147.168 19.7578 147.794 19.731 148.196 19.6579C149.193 19.4766 150.172 18.5767 150.917 17.9671C152.278 16.8516 153.62 15.708 154.921 14.5218C156.492 13.0895 158.197 11.0044 159.231 9.14418C159.432 8.78145 159.647 8.16051 159.968 8" stroke="#CB5252" stroke-width="3" stroke-linecap="round" stroke-linejoin="round"/>
<path d="M147.382 20.3571C145.054 26.3835 145.367 33.1356 144.077 39.4013C143.343 42.9675 142.085 46.664 140.161 49.7752C139.528 50.7992 139.167 50.9785 138 51.4788" stroke="#CB5252" stroke-width="3" stroke-linecap="round" stroke-linejoin="round"/>
<path d="M162.714 21.7301C160.564 23.3588 158.72 25.3178 156.968 27.362C154.425 30.3286 150.815 34.2036 150.815 38.3843C150.815 39.5553 153.326 39.9683 154.222 40.0243C155.863 40.1269 157.401 39.9579 158.837 39.0962C162.037 37.1761 165.731 31.991 165.905 28.1503C165.994 26.2009 164.986 23.7843 162.943 23.1031" stroke="#CB5252" stroke-width="3" stroke-linecap="round" stroke-linejoin="round"/>
<path d="M171.41 24.9338C170.467 27.3506 170.227 29.9022 169.465 32.3583C169.289 32.9261 168.474 35.2802 168.944 35.8671C169.557 36.6337 169.882 37.4227 170.851 37.8631C171.712 38.2547 173.195 37.3561 173.915 36.9604C175.377 36.1559 176.505 34.8228 177.589 33.5788C178.218 32.8561 179.01 32.24 179.546 31.443C180.077 30.6548 180.323 29.7 180.792 28.8749C181.658 27.3533 183.761 25.5826 183.983 23.8024C184.102 22.854 183.805 23.4256 183.424 23.8914C182.752 24.7124 181.969 25.7424 181.657 26.7645C180.968 29.0199 180.258 30.941 180.78 33.2864C181.094 34.7003 183.05 35.918 184.454 35.918" stroke="#CB5252" stroke-width="3" stroke-linecap="round" stroke-linejoin="round"/>
</g>
<defs>
<clipPath id="clip0">
<rect width="197" height="55" fill="white"/>
</clipPath>
</defs>
</svg>
